<svg xmlns="http://www.w3.org/2000/svg" width="32" height="32" viewBox="0 0 1200 1200">
  <path d="M334.086 1034.777c42.209.101 84.42 1.077 126.629 2.137l126.629 4.183 253.258 8.385 253.258 3.938 46.139.737-22.752-41.203c-41.768-75.641-85.17-150.956-129.249-225.777L853.262 566.212 588.07 145.844 457.201 351.559 322.927 567.497c-44.604 73.418-89.542 147.552-131.33 224.007L70.195 1020.284 60 1039.575l20.829-.867c84.419-3.515 168.839-4.75 253.258-3.931zm-110.407-212.38c42.752-69.863 82.354-142.047 122.29-214.947l119.346-223.016 122.751-233.238 240.601 457.538 118.159 217.991 100.168 173.372-206.393 3.276c-84.419 1.61-168.839 5.199-253.258 8.386l-126.629 4.183-126.629 2.137c-77.145.749-154.291-.313-231.436-3.168l121.029-192.514z" fill="#001224"/>
</svg>